<?xml version="1.0" encoding="UTF-8" standalone="no"?>
<svg
   data-name="Livello 1"
   id="Livello_1"
   viewBox="0 0 128 128"
   version="1.1"
   sodipodi:docname="download.svg"
   inkscape:version="1.3 (0e150ed6c4, 2023-07-21)"
   xmlns:inkscape="http://www.inkscape.org/namespaces/inkscape"
   xmlns:sodipodi="http://sodipodi.sourceforge.net/DTD/sodipodi-0.dtd"
   xmlns="http://www.w3.org/2000/svg"
   xmlns:svg="http://www.w3.org/2000/svg">
  <defs
     id="defs2" />
  <sodipodi:namedview
     id="namedview2"
     pagecolor="#ffffff"
     bordercolor="#000000"
     borderopacity="0.25"
     inkscape:showpageshadow="2"
     inkscape:pageopacity="0.0"
     inkscape:pagecheckerboard="0"
     inkscape:deskcolor="#d1d1d1"
     showgrid="false"
     inkscape:zoom="9.1640625"
     inkscape:cx="63.945439"
     inkscape:cy="64"
     inkscape:window-width="2560"
     inkscape:window-height="1369"
     inkscape:window-x="1912"
     inkscape:window-y="-8"
     inkscape:window-maximized="1"
     inkscape:current-layer="Livello_1" />
  <title
     id="title1" />
  <path
     d="M61.88,93.12h0a3,3,0,0,0,.44.36l.24.13a1.74,1.74,0,0,0,.59.24l.25.07h0a3,3,0,0,0,1.16,0l.26-.08.3-.09a3,3,0,0,0,.3-.16l.21-.12a3,3,0,0,0,.46-.38L93,66.21A3,3,0,1,0,88.79,62L67,83.76V3a3,3,0,0,0-6,0V83.76L39.21,62A3,3,0,0,0,35,66.21Z"
     id="path1"
     style="fill:#ffffff;fill-opacity:1" />
  <path
     d="M125,88a3,3,0,0,0-3,3v22a9,9,0,0,1-9,9H15a9,9,0,0,1-9-9V91a3,3,0,0,0-6,0v22a15,15,0,0,0,15,15h98a15,15,0,0,0,15-15V91A3,3,0,0,0,125,88Z"
     id="path2"
     style="fill:#ffffff;fill-opacity:1" />
</svg>
