<?xml version="1.0" encoding="UTF-8" standalone="no"?>
<svg
   version="1.0"
   width="1024.000000pt"
   height="1024.000000pt"
   viewBox="0 0 1024.000000 1024.000000"
   preserveAspectRatio="xMidYMid meet"
   id="svg8"
   sodipodi:docname="icono-upb.svg"
   inkscape:version="1.3 (0e150ed6c4, 2023-07-21)"
   xmlns:inkscape="http://www.inkscape.org/namespaces/inkscape"
   xmlns:sodipodi="http://sodipodi.sourceforge.net/DTD/sodipodi-0.dtd"
   xmlns:xlink="http://www.w3.org/1999/xlink"
   xmlns="http://www.w3.org/2000/svg"
   xmlns:svg="http://www.w3.org/2000/svg">
  <defs
     id="defs8">
    <linearGradient
       id="swatch14"
       inkscape:swatch="solid">
      <s
         style="s-color:#ffffff;s-opacity:1;"
         offset="0"
         id="s14" />
    </linearGradient>
    <linearGradient
       inkscape:collect="always"
       xlink:href="#swatch14"
       id="linearGradient14"
       x1="-0.5"
       y1="5120"
       x2="10240.5"
       y2="5120"
       gradientUnits="userSpaceOnUse" />
  </defs>
  <sodipodi:namedview
     id="namedview8"
     pagecolor="#ffffff"
     bordercolor="#000000"
     borderopacity="0.25"
     inkscape:showpageshadow="2"
     inkscape:pageopacity="0.0"
     inkscape:pagecheckerboard="0"
     inkscape:deskcolor="#d1d1d1"
     inkscape:document-units="pt"
     inkscape:zoom="0.85913086"
     inkscape:cx="682.08468"
     inkscape:cy="682.66667"
     inkscape:window-width="2560"
     inkscape:window-height="1369"
     inkscape:window-x="1912"
     inkscape:window-y="-8"
     inkscape:window-maximized="1"
     inkscape:current-layer="g8" />
  <g
     transform="translate(0.000000,1024.000000) scale(0.100000,-0.100000)"
     fill="#000000"
     stroke="none"
     id="g8">
    <path
       d="M0 5120 l0 -5120 5120 0 5120 0 0 5120 0 5120 -5120 0 -5120 0 0 -5120z m5361 3120 c493 -39 964 -210 1369 -498 388 -276 717 -663 926 -1087 75 -153 161 -376 183 -478 l9 -38 -91 3 -92 3 -36 100 c-105 290 -272 588 -466 831 -122 153 -194 225 -363 366 -298 249 -527 378 -865 487 -268 87 -515 125 -815 124 -509 0 -916 -113 -1370 -381 -207 -122 -498 -381 -669 -596 -175 -221 -374 -578 -454 -815 l-42 -124 -85 2 c-47 1 -87 4 -89 6 -2 3 11 62 28 132 89 354 267 673 578 1033 213 247 511 474 844 643 194 99 338 153 549 206 319 81 617 106 951 81z m-201 -810 c6 -12 10 -162 10 -408 0 -370 -1 -390 -19 -406 -27 -25 -73 -17 -86 14 -7 17 -9 156 -5 420 l5 394 24 13 c28 13 55 4 71 -27z m874 -196 c31 -32 32 -34 5 -68 -30 -38 -74 -59 -99 -46 -44 23 -43 69 2 118 28 29 59 28 92 -4z m-1730 -15 c34 -41 34 -74 -1 -92 -33 -17 -49 -13 -85 21 -34 31 -36 65 -6 86 34 24 63 19 92 -15z m1510 -230 c14 -11 26 -25 26 -31 0 -15 -283 -308 -298 -308 -24 0 -64 49 -57 70 9 28 266 288 286 289 9 1 28 -8 43 -20z m-1203 -121 c71 -73 132 -141 135 -151 7 -23 -31 -67 -59 -67 -20 0 -28 7 -184 177 -57 61 -103 118 -103 127 0 18 38 46 63 46 11 0 73 -56 148 -132z m1798 56 c41 -34 43 -83 5 -113 -36 -28 -66 -26 -98 5 -36 37 -34 75 5 108 17 14 37 26 44 26 7 0 27 -12 44 -26z m-2490 -10 c32 -40 27 -78 -12 -108 -19 -15 -38 -26 -42 -26 -18 0 -75 65 -75 86 0 37 37 74 75 74 24 0 39 -7 54 -26z m209 -470 c47 -10 446 -331 481 -388 20 -32 20 -36 6 -132 -19 -125 -18 -198 1 -249 29 -73 29 -90 -1 -103 -43 -20 -117 -15 -166 11 -51 27 -112 109 -128 174 -13 51 -14 115 -1 168 8 33 6 43 -9 58 -17 17 -19 17 -69 -18 -28 -19 -54 -35 -57 -35 -13 0 -124 87 -182 142 -34 32 -69 58 -79 58 -20 0 -84 -57 -84 -75 0 -7 35 -41 78 -78 42 -36 97 -86 121 -110 l44 -46 -28 -88 c-65 -210 -103 -274 -207 -343 -81 -54 -152 -74 -243 -68 -134 9 -251 83 -306 194 -29 58 -32 75 -33 154 0 83 2 93 39 167 32 65 59 98 155 193 110 109 350 313 431 367 72 47 154 64 237 47z m2192 -33 c102 -63 346 -265 462 -383 144 -146 188 -223 196 -343 6 -93 -9 -153 -55 -222 -29 -44 -49 -61 -103 -88 -129 -65 -241 -64 -384 5 -114 54 -185 146 -242 312 -26 76 -30 118 -15 147 10 17 152 141 224 194 20 16 37 34 37 41 0 18 -29 41 -65 53 -27 9 -35 6 -85 -37 -30 -26 -100 -77 -155 -114 -88 -58 -101 -64 -110 -50 -20 34 -67 84 -79 84 -7 0 -20 -6 -30 -13 -18 -13 -18 -16 -1 -83 29 -115 2 -223 -74 -300 -48 -49 -139 -68 -210 -43 -36 13 -36 17 -16 96 12 47 13 80 5 188 -15 202 -17 192 38 244 26 26 92 82 147 127 55 44 129 104 165 133 97 79 130 93 221 88 65 -3 84 -8 129 -36z m-1451 -172 c105 -36 160 -100 168 -197 4 -51 2 -62 -24 -100 -44 -65 -65 -75 -161 -80 l-84 -5 9 79 c4 44 8 101 8 128 0 48 -1 50 -84 128 l-84 80 99 -7 c54 -4 123 -16 153 -26z m745 25 c12 -5 7 -12 -23 -33 -51 -34 -118 -111 -126 -144 -4 -14 0 -57 9 -96 9 -38 16 -84 16 -100 l0 -31 -82 0 c-65 0 -90 4 -115 20 -89 54 -116 178 -58 262 36 51 94 93 155 112 45 15 195 21 224 10z m-2364 -272 c0 -5 -14 -28 -31 -52 -94 -129 -121 -320 -66 -451 8 -19 28 -56 45 -82 l30 -48 -43 -84 c-51 -101 -68 -184 -56 -272 10 -69 42 -147 73 -180 l21 -23 -419 0 -420 0 -32 143 c-49 217 -57 278 -41 288 8 4 152 7 320 6 289 -2 308 -1 328 17 27 24 27 70 1 96 -19 19 -33 20 -346 20 l-327 0 5 143 c4 82 17 212 33 309 l28 168 406 3 c223 1 425 3 449 5 23 1 42 -2 42 -6z m4246 -2 l402 0 6 -27 c21 -98 37 -253 43 -410 l6 -183 -300 0 c-288 0 -301 -1 -318 -20 -10 -11 -18 -34 -18 -50 0 -16 8 -39 18 -50 17 -19 30 -20 315 -20 l297 0 -18 -102 c-9 -57 -26 -141 -37 -188 -12 -47 -22 -96 -24 -110 l-3 -25 -412 -3 c-258 -2 -413 0 -413 6 0 5 7 15 15 22 26 22 57 123 62 205 7 99 -14 188 -62 265 l-33 55 19 32 c55 89 79 167 79 263 0 90 -23 169 -77 269 l-46 84 48 -6 c26 -4 229 -7 451 -7z m-2499 -302 c62 -64 69 -129 22 -183 -51 -57 -74 -65 -199 -65 l-110 0 40 40 c53 53 57 75 27 165 l-26 75 108 0 107 0 31 -32z m503 28 c0 -3 -7 -35 -16 -72 -18 -81 -15 -98 32 -159 l35 -47 -125 4 -125 3 -40 39 c-73 71 -78 133 -17 199 l34 37 111 0 c61 0 111 -2 111 -4z m570 -88 c24 -56 22 -90 -7 -134 -25 -38 -71 -54 -159 -54 l-76 0 58 43 c60 44 98 91 130 160 10 20 21 37 25 37 3 0 17 -23 29 -52z m-1798 -86 c39 -41 96 -79 132 -88 14 -3 26 -11 26 -16 0 -15 -154 0 -202 19 -72 29 -96 89 -62 156 31 61 36 62 55 11 10 -26 33 -63 51 -82z m-202 -178 c0 -8 -11 -30 -24 -47 -70 -94 -60 -220 24 -327 l30 -38 -22 -39 c-19 -31 -23 -53 -23 -118 1 -99 25 -156 93 -216 l47 -42 -130 7 c-177 10 -346 32 -406 56 -143 54 -302 185 -351 290 -40 85 -52 159 -38 228 12 58 56 142 75 142 6 0 37 -13 70 -29 179 -87 430 -44 570 98 49 51 85 65 85 35z m2257 -87 c160 -108 355 -125 506 -44 44 23 63 28 75 21 30 -18 72 -114 72 -163 0 -62 -43 -197 -81 -254 -38 -57 -149 -146 -242 -193 -122 -62 -334 -104 -526 -104 l-67 0 42 46 c94 100 117 255 53 346 -20 27 -20 27 1 48 37 37 80 140 80 190 0 46 -28 121 -58 153 -16 18 -15 20 7 39 l25 19 23 -29 c12 -16 53 -50 90 -75z m-284 -5 c72 -65 59 -165 -26 -213 -36 -20 -58 -23 -192 -27 -83 -3 -236 -1 -339 3 l-188 7 -49 47 c-43 42 -49 52 -49 88 0 44 35 98 71 111 10 4 183 6 386 4 328 -3 370 -5 386 -20z m-1033 -24 c37 -51 38 -90 4 -139 -53 -76 -39 -74 -414 -74 -364 0 -364 0 -418 58 -31 33 -39 94 -18 135 33 63 23 62 438 62 l378 0 30 -42z m-69 -380 c43 -70 -2 -181 -93 -226 -44 -22 -56 -23 -277 -23 -254 0 -270 3 -329 64 -60 62 -69 126 -26 182 14 19 30 20 272 25 141 3 296 7 345 8 l87 2 21 -32z m1097 -17 c26 -45 27 -72 8 -109 -20 -37 -85 -99 -119 -111 -17 -7 -123 -11 -265 -11 l-237 0 -52 30 c-98 56 -131 145 -77 209 l26 31 347 0 347 0 22 -39z m-3339 -309 c231 -466 579 -859 994 -1120 133 -85 394 -211 527 -255 117 -39 354 -98 500 -123 149 -26 506 -30 682 -9 265 31 595 115 794 200 189 80 453 239 594 355 288 238 574 595 730 910 23 47 53 100 67 118 l24 32 94 0 94 0 -9 -27 c-18 -63 -127 -294 -177 -376 -209 -344 -420 -580 -765 -854 -71 -56 -270 -179 -430 -266 -211 -114 -597 -234 -893 -277 -354 -52 -699 -33 -1090 60 -222 53 -364 106 -600 225 -482 242 -824 544 -1124 992 -67 99 -166 293 -221 430 l-37 92 86 3 c47 2 91 2 96 0 6 -1 35 -51 64 -110z m2453 -239 c17 -15 18 -40 18 -380 0 -350 -1 -364 -20 -383 -27 -27 -44 -25 -69 6 -20 26 -21 38 -21 382 0 317 2 357 17 374 20 22 51 23 75 1z m-427 -60 c14 -15 25 -32 25 -37 0 -6 -33 -39 -72 -75 -40 -36 -102 -96 -139 -133 -36 -38 -69 -68 -74 -68 -14 0 -65 52 -65 67 0 20 261 273 281 273 10 0 30 -12 44 -27z m915 -50 c30 -36 85 -93 123 -127 37 -33 67 -66 67 -74 0 -7 -14 -27 -31 -44 l-31 -31 -129 129 c-71 71 -132 137 -135 147 -9 28 22 67 54 67 21 0 39 -15 82 -67z m-1725 -48 c31 -30 32 -71 3 -102 -27 -29 -65 -29 -95 -1 -30 28 -30 74 -1 105 28 30 63 29 93 -2z m2498 -3 c32 -34 34 -60 6 -96 -28 -35 -72 -35 -104 0 -29 32 -31 51 -8 84 34 50 67 53 106 12z m-2115 -318 c33 -23 29 -66 -9 -98 -17 -14 -37 -26 -45 -26 -20 0 -54 36 -54 58 0 24 28 62 54 72 29 12 29 12 54 -6z m1716 -10 c32 -32 33 -60 4 -91 -28 -30 -40 -29 -83 8 -39 34 -43 53 -19 87 21 31 65 29 98 -4z m99 -1262 c20 -43 45 -101 56 -130 12 -29 32 -75 46 -102 l25 -50 -54 0 c-52 0 -55 1 -61 30 -6 29 -8 30 -66 30 -32 0 -62 1 -66 3 -3 1 -11 -11 -16 -28 -6 -16 -15 -33 -21 -37 -16 -11 -86 -5 -86 7 1 9 61 165 108 280 12 28 23 57 25 66 4 11 14 14 40 11 32 -4 37 -9 70 -80z m-2770 -77 c37 -79 70 -158 73 -175 l7 -30 -52 0 c-50 0 -51 1 -51 30 0 17 -3 30 -7 31 -5 0 -37 1 -73 2 l-65 2 -9 -35 c-8 -34 -10 -35 -56 -35 l-47 0 13 46 c26 86 44 133 86 224 l42 90 36 -3 c35 -4 36 -4 103 -147z m668 145 l129 0 0 -45 0 -45 -50 0 -50 0 0 -130 0 -130 -46 0 -45 0 3 130 3 130 -52 0 -53 0 0 51 c0 43 3 50 16 45 9 -3 74 -6 145 -6z m293 -22 c17 -18 57 -62 89 -98 l59 -65 -6 97 -6 96 42 -5 c24 -3 44 -6 44 -7 1 0 4 -79 7 -173 l6 -173 -35 0 c-28 0 -42 7 -62 32 -15 18 -53 59 -85 93 l-58 60 3 -92 4 -93 -48 0 -48 0 0 113 c0 61 3 142 7 180 5 63 7 67 30 67 15 0 38 -13 57 -32z m1433 17 c61 -14 95 -102 53 -140 l-20 -18 25 -27 c33 -34 34 -88 3 -118 -37 -33 -73 -42 -179 -42 l-99 0 0 178 0 177 97 -3 c54 -1 108 -5 120 -7z m781 -35 l3 -40 -45 0 -46 0 0 -129 0 -129 -45 -4 -45 -3 0 132 0 133 -55 0 -55 0 0 43 0 42 142 -2 143 -2 3 -41z m342 3 l0 -43 -52 0 -51 0 6 -130 6 -130 -44 0 -45 0 0 130 0 130 -55 0 -55 0 0 44 0 44 145 -2 145 -1 0 -42z m161 -84 l-3 -131 78 3 79 4 0 -45 0 -45 -124 -3 -124 -3 6 92 c4 51 7 127 7 170 l0 78 43 4 c23 2 42 4 42 5 0 1 -2 -57 -4 -129z m507 88 l-3 -42 -92 -3 -93 -3 0 -29 0 -30 70 0 70 0 0 -35 0 -35 -71 0 c-67 0 -70 -1 -67 -22 3 -22 7 -23 93 -23 l90 0 3 -45 3 -45 -138 3 c-76 2 -139 5 -140 6 -2 1 0 79 4 172 l6 169 134 2 134 2 -3 -42z m-4558 15 c68 -34 100 -119 64 -170 -23 -34 -68 -52 -140 -59 l-66 -6 4 -49 3 -49 -50 4 c-29 3 -50 9 -49 16 1 6 2 83 3 171 l1 160 98 0 c72 0 106 -4 132 -18z m767 -14 c68 -64 75 -117 22 -162 -38 -32 -37 -53 7 -116 25 -36 31 -51 19 -47 -9 4 -34 7 -55 7 -35 0 -41 4 -56 35 -19 40 -49 65 -77 65 -17 0 -19 -6 -15 -50 l5 -50 -48 0 -49 0 0 174 0 174 111 -3 c100 -3 114 -6 136 -27z m1163 -8 l0 -39 -82 -3 c-82 -3 -83 -3 -86 -30 l-3 -28 65 0 66 0 0 -35 0 -35 -65 0 c-63 0 -65 -1 -65 -25 0 -25 1 -25 80 -25 l80 0 0 -44 0 -44 -127 2 -128 3 0 171 -1 172 133 0 133 0 0 -40z m346 9 c15 -13 33 -39 41 -57 18 -44 3 -94 -38 -123 -29 -21 -30 -22 -13 -48 9 -14 27 -38 41 -52 l24 -26 -38 -6 c-65 -11 -71 -9 -83 28 -13 40 -44 65 -80 65 -24 0 -25 -2 -21 -56 l3 -57 -32 7 c-18 3 -39 6 -46 6 -11 0 -14 33 -14 176 l0 177 115 -5 c104 -4 117 -6 141 -29z m-103 -547 c17 -28 17 -33 2 -61 -18 -37 -38 -39 -59 -9 -20 29 -20 58 0 86 20 28 34 24 57 -16z"
       id="path1"
       style="fill:url(#linearGradient14);fill-opacity:1;stroke:#ffffff;stroke-opacity:1" />
    <path
       d="M6025 2459 c-21 -46 -13 -59 38 -59 31 0 33 7 13 54 -20 49 -31 50 -51 5z"
       id="path2"
       style="fill:#ffffff;fill-opacity:1;stroke:#111111;stroke-opacity:1" />
    <path
       d="M3215 2464 c-9 -25 -16 -47 -14 -48 5 -4 89 -15 89 -12 0 1 -9 21 -20 44 -11 22 -20 46 -20 52 0 25 -19 6 -35 -36z"
       id="path3"
       style="fill:#ffffff;fill-opacity:1;stroke:#111111;stroke-opacity:1" />
    <path
       d="M5600 2523 c0 -34 15 -44 61 -41 40 3 44 6 47 31 3 27 2 27 -52 27 -47 0 -56 -3 -56 -17z"
       id="path4"
       style="fill:#ffffff;fill-opacity:1;stroke:#111111;stroke-opacity:1" />
    <path
       d="M5612 2388 c3 -33 3 -33 58 -33 52 0 55 1 58 26 3 23 -1 27 -35 32 -76 13 -85 11 -81 -25z"
       id="path5"
       style="fill:#ffffff;fill-opacity:1;stroke:#111111;stroke-opacity:1" />
    <path
       d="M2834 2526 c-3 -8 -4 -27 -2 -43 3 -26 6 -28 57 -31 56 -3 71 5 71 40 0 9 -7 24 -16 32 -20 21 -102 22 -110 2z"
       id="path6"
       style="fill:#ffffff;fill-opacity:1;stroke:#111111;stroke-opacity:1" />
    <path
       d="M3578 2504 c-6 -47 2 -54 64 -54 43 0 48 3 54 26 9 35 -11 52 -68 60 l-46 6 -4 -38z"
       id="path7"
       style="fill:#ffffff;fill-opacity:1;stroke:#111111;stroke-opacity:1" />
    <path
       d="M5080 2501 c0 -33 3 -39 25 -44 14 -2 40 -1 58 2 25 5 33 12 35 34 4 31 -25 47 -84 47 -33 0 -34 -1 -34 -39z"
       id="path8"
       style="fill:#ffffff;fill-opacity:1" />
  </g>
</svg>
